WARNING: convergence for pf not reached after 100 iterations
  res: 4.06228e+08 sum: -6.75091e+10 nrelax: 100
WARNING: convergence for p not reached after 100 iterations
  res: 4.06231e+08 sum: -6.7509e+10 nrelax: 100
WARNING: convergence for p not reached after 100 iterations
  res: 2.14755e+08 sum: -3.52517e+11 nrelax: 100
WARNING: convergence for p not reached after 100 iterations
  res: 2.14731e+08 sum: -3.52517e+11 nrelax: 100
WARNING: convergence for pf not reached after 100 iterations
  res: 2.14384e+08 sum: -3.52026e+11 nrelax: 100
WARNING: convergence for p not reached after 100 iterations
  res: 2.14683e+08 sum: -3.52517e+11 nrelax: 100
WARNING: convergence for pf not reached after 100 iterations
  res: 2.14335e+08 sum: -3.52091e+11 nrelax: 100
WARNING: convergence for p not reached after 100 iterations
  res: 2.14594e+08 sum: -3.52517e+11 nrelax: 100
WARNING: convergence for pf not reached after 100 iterations
  res: 2.14191e+08 sum: -3.52092e+11 nrelax: 100
WARNING: convergence for p not reached after 100 iterations
  res: 2.14449e+08 sum: -3.52517e+11 nrelax: 100
WARNING: convergence for pf not reached after 100 iterations
  res: 2.1398e+08 sum: -3.52091e+11 nrelax: 100
WARNING: convergence for p not reached after 100 iterations
  res: 2.14239e+08 sum: -3.52517e+11 nrelax: 100
WARNING: convergence for pf not reached after 100 iterations
  res: 2.13687e+08 sum: -3.52088e+11 nrelax: 100
ffmpeg version 4.2.4-1ubuntu0.1 Copyright (c) 2000-2020 the FFmpeg developers
  built with gcc 9 (Ubuntu 9.3.0-10ubuntu2)
  configuration: --prefix=/usr --extra-version=1ubuntu0.1 --toolchain=hardened --libdir=/usr/lib/x86_64-linux-gnu --incdir=/usr/include/x86_64-linux-gnu --arch=amd64 --enable-gpl --disable-stripping --enable-avresample --disable-filter=resample --enable-avisynth --enable-gnutls --enable-ladspa --enable-libaom --enable-libass --enable-libbluray --enable-libbs2b --enable-libcaca --enable-libcdio --enable-libcodec2 --enable-libflite --enable-libfontconfig --enable-libfreetype --enable-libfribidi --enable-libgme --enable-libgsm --enable-libjack --enable-libmp3lame --enable-libmysofa --enable-libopenjpeg --enable-libopenmpt --enable-libopus --enable-libpulse --enable-librsvg --enable-librubberband --enable-libshine --enable-libsnappy --enable-libsoxr --enable-libspeex --enable-libssh --enable-libtheora --enable-libtwolame --enable-libvidstab --enable-libvorbis --enable-libvpx --enable-libwavpack --enable-libwebp --enable-libx265 --enable-libxml2 --enable-libxvid --enable-libzmq --enable-libzvbi --enable-lv2 --enable-omx --enable-openal --enable-opencl --enable-opengl --enable-sdl2 --enable-libdc1394 --enable-libdrm --enable-libiec61883 --enable-nvenc --enable-chromaprint --enable-frei0r --enable-libx264 --enable-shared
  WARNING: library configuration mismatch
  avcodec     configuration: --prefix=/usr --extra-version=1ubuntu0.1 --toolchain=hardened --libdir=/usr/lib/x86_64-linux-gnu --incdir=/usr/include/x86_64-linux-gnu --arch=amd64 --enable-gpl --disable-stripping --enable-avresample --disable-filter=resample --enable-avisynth --enable-gnutls --enable-ladspa --enable-libaom --enable-libass --enable-libbluray --enable-libbs2b --enable-libcaca --enable-libcdio --enable-libcodec2 --enable-libflite --enable-libfontconfig --enable-libfreetype --enable-libfribidi --enable-libgme --enable-libgsm --enable-libjack --enable-libmp3lame --enable-libmysofa --enable-libopenjpeg --enable-libopenmpt --enable-libopus --enable-libpulse --enable-librsvg --enable-librubberband --enable-libshine --enable-libsnappy --enable-libsoxr --enable-libspeex --enable-libssh --enable-libtheora --enable-libtwolame --enable-libvidstab --enable-libvorbis --enable-libvpx --enable-libwavpack --enable-libwebp --enable-libx265 --enable-libxml2 --enable-libxvid --enable-libzmq --enable-libzvbi --enable-lv2 --enable-omx --enable-openal --enable-opencl --enable-opengl --enable-sdl2 --enable-libdc1394 --enable-libdrm --enable-libiec61883 --enable-nvenc --enable-chromaprint --enable-frei0r --enable-libx264 --enable-shared --enable-version3 --disable-doc --disable-programs --enable-libaribb24 --enable-liblensfun --enable-libopencore_amrnb --enable-libopencore_amrwb --enable-libtesseract --enable-libvo_amrwbenc
  libavutil      56. 31.100 / 56. 31.100
  libavcodec     58. 54.100 / 58. 54.100
  libavformat    58. 29.100 / 58. 29.100
  libavdevice    58.  8.100 / 58.  8.100
  libavfilter     7. 57.100 /  7. 57.100
  libavresample   4.  0.  0 /  4.  0.  0
  libswscale      5.  5.100 /  5.  5.100
  libswresample   3.  5.100 /  3.  5.100
  libpostproc    55.  5.100 / 55.  5.100
Input #0, image2pipe, from 'pipe:':
  Duration: N/A, bitrate: N/A
    Stream #0:0: Video: ppm, rgb24, 600x600, 25 fps, 25 tbr, 25 tbn, 25 tbc
Stream mapping:
  Stream #0:0 -> #0:0 (ppm (native) -> h264 (libx264))
[libx264 @ 0x5555555dd680] using cpu capabilities: MMX2 SSE2Fast SSSE3 SSE4.2 AVX FMA3 BMI2 AVX2 AVX512
[libx264 @ 0x5555555dd680] profile High, level 3.0
Output #0, mpegts, to 'movie.mp4':
  Metadata:
    encoder         : Lavf58.29.100
    Stream #0:0: Video: h264 (libx264), yuv420p, 600x600, q=-1--1, 25 fps, 90k tbn, 25 tbc
    Metadata:
      encoder         : Lavc58.54.100 libx264
    Side data:
      cpb: bitrate max/min/avg: 0/0/0 buffer size: 0 vbv_delay: -1
frame=    7 fps=1.2 q=22.0 size=     191kB time=00:00:00.24 bitrate=6529.6kbits/s speed=0.0409x    frame=    8 fps=0.7 q=22.0 size=     202kB time=00:00:00.28 bitrate=5897.6kbits/s speed=0.0234x    frame=    9 fps=0.5 q=22.0 size=     212kB time=00:00:00.32 bitrate=5418.9kbits/s speed=0.0191x    frame=   10 fps=0.4 q=23.0 size=     220kB time=00:00:00.36 bitrate=5017.4kbits/s speed=0.0157x    frame=   11 fps=0.4 q=22.0 size=     229kB time=00:00:00.40 bitrate=4681.1kbits/s speed=0.0132x    frame=   12 fps=0.3 q=23.0 size=     237kB time=00:00:00.44 bitrate=4416.2kbits/s speed=0.0118x    frame=   13 fps=0.3 q=23.0 size=     245kB time=00:00:00.48 bitrate=4189.2kbits/s speed=0.01x    frame=   14 fps=0.2 q=23.0 size=     254kB time=00:00:00.52 bitrate=4000.0kbits/s speed=0.00909x    frame=   15 fps=0.2 q=23.0 size=     256kB time=00:00:00.56 bitrate=3744.8kbits/s speed=0.00852x    frame=   16 fps=0.2 q=22.0 size=     256kB time=00:00:00.60 bitrate=3495.2kbits/s speed=0.00822x    frame=   17 fps=0.2 q=23.0 size=     256kB time=00:00:00.64 bitrate=3276.7kbits/s speed=0.00819x    frame=   18 fps=0.2 q=23.0 size=     256kB time=00:00:00.68 bitrate=3084.0kbits/s speed=0.00788x    frame=   19 fps=0.2 q=23.0 size=     256kB time=00:00:00.72 bitrate=2912.7kbits/s speed=0.00767x    frame=   20 fps=0.2 q=23.0 size=     256kB time=00:00:00.76 bitrate=2759.4kbits/s speed=0.00744x    frame=   21 fps=0.2 q=23.0 size=     256kB time=00:00:00.80 bitrate=2621.4kbits/s speed=0.00711x    frame=   22 fps=0.2 q=23.0 size=     256kB time=00:00:00.84 bitrate=2496.6kbits/s speed=0.00696x    frame=   23 fps=0.2 q=23.0 size=     256kB time=00:00:00.88 bitrate=2383.1kbits/s speed=0.00694x    frame=   24 fps=0.2 q=23.0 size=     256kB time=00:00:00.92 bitrate=2279.5kbits/s speed=0.0068x    frame=   25 fps=0.2 q=23.0 size=     256kB time=00:00:00.96 bitrate=2184.5kbits/s speed=0.00644x    frame=   26 fps=0.2 q=23.0 size=     256kB time=00:00:01.00 bitrate=2097.1kbits/s speed=0.00625x    frame=   27 fps=0.2 q=23.0 size=     256kB time=00:00:01.04 bitrate=2016.5kbits/s speed=0.00623x    frame=   28 fps=0.2 q=22.0 size=     256kB time=00:00:01.08 bitrate=1941.8kbits/s speed=0.00608x    frame=   29 fps=0.2 q=22.0 size=     256kB time=00:00:01.12 bitrate=1872.4kbits/s speed=0.00592x    frame=   30 fps=0.2 q=23.0 size=     256kB time=00:00:01.16 bitrate=1807.9kbits/s speed=0.00591x    frame=   31 fps=0.1 q=23.0 size=     256kB time=00:00:01.20 bitrate=1747.6kbits/s speed=0.00573x    frame=   32 fps=0.1 q=23.0 size=     256kB time=00:00:01.24 bitrate=1691.2kbits/s speed=0.00571x    frame=   33 fps=0.1 q=22.0 size=     256kB time=00:00:01.28 bitrate=1638.4kbits/s speed=0.00572x    frame=   34 fps=0.1 q=22.0 size=     256kB time=00:00:01.32 bitrate=1588.7kbits/s speed=0.00575x    frame=   35 fps=0.1 q=22.0 size=     256kB time=00:00:01.36 bitrate=1542.0kbits/s speed=0.00577x    frame=   36 fps=0.1 q=22.0 size=     256kB time=00:00:01.40 bitrate=1498.0kbits/s speed=0.00568x    frame=   37 fps=0.1 q=22.0 size=     256kB time=00:00:01.44 bitrate=1456.3kbits/s speed=0.00556x    frame=   38 fps=0.1 q=22.0 size=     256kB time=00:00:01.48 bitrate=1417.0kbits/s speed=0.00553x    frame=   39 fps=0.1 q=22.0 size=     256kB time=00:00:01.52 bitrate=1379.7kbits/s speed=0.00559x    frame=   40 fps=0.1 q=22.0 size=     256kB time=00:00:01.56 bitrate=1344.3kbits/s speed=0.00565x    frame=   41 fps=0.1 q=22.0 size=     256kB time=00:00:01.60 bitrate=1310.7kbits/s speed=0.00568x    frame=   42 fps=0.1 q=22.0 size=     256kB time=00:00:01.64 bitrate=1278.7kbits/s speed=0.0057x    frame=   43 fps=0.1 q=22.0 size=     256kB time=00:00:01.68 bitrate=1248.3kbits/s speed=0.00573x    frame=   44 fps=0.1 q=21.0 size=     256kB time=00:00:01.72 bitrate=1219.3kbits/s speed=0.00575x    frame=   45 fps=0.1 q=21.0 size=     256kB time=00:00:01.76 bitrate=1191.6kbits/s speed=0.00577x    frame=   46 fps=0.1 q=21.0 size=     256kB time=00:00:01.80 bitrate=1165.1kbits/s speed=0.00583x    frame=   47 fps=0.2 q=21.0 size=     256kB time=00:00:01.84 bitrate=1139.7kbits/s speed=0.0059x    frame=   48 fps=0.2 q=21.0 size=     512kB time=00:00:01.88 bitrate=2231.0kbits/s speed=0.00596x    frame=   49 fps=0.2 q=21.0 size=     512kB time=00:00:01.92 bitrate=2184.5kbits/s speed=0.00599x    frame=   50 fps=0.2 q=21.0 size=     512kB time=00:00:01.96 bitrate=2139.9kbits/s speed=0.00604x    frame=   51 fps=0.2 q=20.0 size=     512kB time=00:00:02.00 bitrate=2097.1kbits/s speed=0.00609x    frame=   52 fps=0.2 q=20.0 size=     512kB time=00:00:02.04 bitrate=2056.0kbits/s speed=0.00615x    frame=   53 fps=0.2 q=20.0 size=     512kB time=00:00:02.08 bitrate=2016.5kbits/s speed=0.00622x    frame=   54 fps=0.2 q=20.0 size=     512kB time=00:00:02.12 bitrate=1978.4kbits/s speed=0.00623x    frame=   55 fps=0.2 q=20.0 size=     512kB time=00:00:02.16 bitrate=1941.8kbits/s speed=0.00629x    frame=   56 fps=0.2 q=20.0 size=     512kB time=00:00:02.20 bitrate=1906.5kbits/s speed=0.00634x    frame=   57 fps=0.2 q=20.0 size=     512kB time=00:00:02.24 bitrate=1872.4kbits/s speed=0.0064x    frame=   58 fps=0.2 q=20.0 size=     512kB time=00:00:02.28 bitrate=1839.6kbits/s speed=0.00646x    frame=   59 fps=0.2 q=19.0 size=     512kB time=00:00:02.32 bitrate=1807.9kbits/s speed=0.00652x    frame=   60 fps=0.2 q=19.0 size=     512kB time=00:00:02.36 bitrate=1777.2kbits/s speed=0.00659x    frame=   61 fps=0.2 q=19.0 size=     512kB time=00:00:02.40 bitrate=1747.6kbits/s speed=0.00663x    frame=   62 fps=0.2 q=19.0 size=     512kB time=00:00:02.44 bitrate=1719.0kbits/s speed=0.00667x    frame=   63 fps=0.2 q=19.0 size=     512kB time=00:00:02.48 bitrate=1691.2kbits/s speed=0.00673x    frame=   64 fps=0.2 q=19.0 size=     512kB time=00:00:02.52 bitrate=1664.4kbits/s speed=0.00677x    frame=   65 fps=0.2 q=19.0 size=     512kB time=00:00:02.56 bitrate=1638.4kbits/s speed=0.00681x    frame=   66 fps=0.2 q=19.0 size=     512kB time=00:00:02.60 bitrate=1613.2kbits/s speed=0.00679x    frame=   67 fps=0.2 q=18.0 size=     512kB time=00:00:02.64 bitrate=1588.7kbits/s speed=0.00678x    frame=   68 fps=0.2 q=18.0 size=     512kB time=00:00:02.68 bitrate=1565.0kbits/s speed=0.00684x    frame=   69 fps=0.2 q=18.0 size=     512kB time=00:00:02.72 bitrate=1542.0kbits/s speed=0.00686x    frame=   70 fps=0.2 q=17.0 size=     512kB time=00:00:02.76 bitrate=1519.7kbits/s speed=0.00686x    frame=   71 fps=0.2 q=17.0 size=     512kB time=00:00:02.80 bitrate=1498.0kbits/s speed=0.00689x    frame=   72 fps=0.2 q=17.0 size=     512kB time=00:00:02.84 bitrate=1476.9kbits/s speed=0.00693x    frame=   73 fps=0.2 q=17.0 size=     512kB time=00:00:02.88 bitrate=1456.3kbits/s speed=0.00695x    frame=   74 fps=0.2 q=17.0 size=     512kB time=00:00:02.92 bitrate=1436.4kbits/s speed=0.00685x    frame=   75 fps=0.2 q=16.0 size=     512kB time=00:00:02.96 bitrate=1417.0kbits/s speed=0.00689x    frame=   76 fps=0.2 q=16.0 size=     512kB time=00:00:03.00 bitrate=1398.1kbits/s speed=0.00694x    frame=   77 fps=0.2 q=17.0 size=     512kB time=00:00:03.04 bitrate=1379.7kbits/s speed=0.00699x    frame=   78 fps=0.2 q=16.0 size=     512kB time=00:00:03.08 bitrate=1361.8kbits/s speed=0.00703x    frame=   79 fps=0.2 q=16.0 size=     512kB time=00:00:03.12 bitrate=1344.3kbits/s speed=0.00708x    frame=   80 fps=0.2 q=16.0 size=     512kB time=00:00:03.16 bitrate=1327.3kbits/s speed=0.00713x    frame=   81 fps=0.2 q=15.0 size=     512kB time=00:00:03.20 bitrate=1310.7kbits/s speed=0.00718x    frame=   82 fps=0.2 q=15.0 size=     512kB time=00:00:03.24 bitrate=1294.5kbits/s speed=0.00723x    frame=   83 fps=0.2 q=15.0 size=     512kB time=00:00:03.28 bitrate=1278.7kbits/s speed=0.00728x    frame=   84 fps=0.2 q=15.0 size=     512kB time=00:00:03.32 bitrate=1263.3kbits/s speed=0.00734x    frame=   85 fps=0.2 q=14.0 size=     512kB time=00:00:03.36 bitrate=1248.3kbits/s speed=0.00739x    frame=   86 fps=0.2 q=14.0 size=     512kB time=00:00:03.40 bitrate=1233.6kbits/s speed=0.00744x    frame=   87 fps=0.2 q=14.0 size=     512kB time=00:00:03.44 bitrate=1219.3kbits/s speed=0.0075x    frame=   88 fps=0.2 q=13.0 size=     512kB time=00:00:03.48 bitrate=1205.3kbits/s speed=0.00756x    frame=   89 fps=0.2 q=13.0 size=     512kB time=00:00:03.52 bitrate=1191.6kbits/s speed=0.00762x    frame=   90 fps=0.2 q=13.0 size=     512kB time=00:00:03.56 bitrate=1178.2kbits/s speed=0.00763x    frame=   91 fps=0.2 q=13.0 size=     512kB time=00:00:03.60 bitrate=1165.1kbits/s speed=0.00766x    frame=   92 fps=0.2 q=13.0 size=     512kB time=00:00:03.64 bitrate=1152.3kbits/s speed=0.0077x    frame=   93 fps=0.2 q=13.0 size=     512kB time=00:00:03.68 bitrate=1139.8kbits/s speed=0.00774x    frame=   94 fps=0.2 q=13.0 size=     512kB time=00:00:03.72 bitrate=1127.5kbits/s speed=0.00778x    frame=   95 fps=0.2 q=13.0 size=     512kB time=00:00:03.76 bitrate=1115.5kbits/s speed=0.00781x    frame=   96 fps=0.2 q=13.0 size=     512kB time=00:00:03.80 bitrate=1103.8kbits/s speed=0.00786x    frame=   97 fps=0.2 q=13.0 size=     512kB time=00:00:03.84 bitrate=1092.3kbits/s speed=0.00789x    frame=   98 fps=0.2 q=13.0 size=     512kB time=00:00:03.88 bitrate=1081.0kbits/s speed=0.0079x    frame=   99 fps=0.2 q=12.0 size=     512kB time=00:00:03.92 bitrate=1070.0kbits/s speed=0.00794x    frame=  100 fps=0.2 q=12.0 size=     512kB time=00:00:03.96 bitrate=1059.2kbits/s speed=0.00798x    Error while decoding stream #0:0: Invalid data found when processing input
frame=  100 fps=0.2 q=12.0 size=     512kB time=00:00:03.96 bitrate=1059.2kbits/s speed=0.00794x    frame=  100 fps=0.2 q=12.0 Lsize=     735kB time=00:00:03.96 bitrate=1521.5kbits/s speed=0.00658x    
video:671kB audio:0kB subtitle:0kB other streams:0kB global headers:0kB muxing overhead: 9.578566%
[libx264 @ 0x5555555dd680] frame I:1     Avg QP:11.57  size:109885
[libx264 @ 0x5555555dd680] frame P:99    Avg QP:19.98  size:  5832
[libx264 @ 0x5555555dd680] mb I  I16..4: 67.0% 23.8%  9.3%
[libx264 @ 0x5555555dd680] mb P  I16..4:  3.0%  4.8%  0.9%  P16..4: 22.7%  5.6%  3.4%  0.0%  0.0%    skip:59.5%
[libx264 @ 0x5555555dd680] 8x8 transform intra:51.9% inter:11.9%
[libx264 @ 0x5555555dd680] coded y,uvDC,uvAC intra: 12.8% 25.7% 15.2% inter: 7.1% 5.2% 2.2%
[libx264 @ 0x5555555dd680] i16 v,h,dc,p: 57% 17% 25%  2%
[libx264 @ 0x5555555dd680] i8 v,h,dc,ddl,ddr,vr,hd,vl,hu:  6%  7% 83%  1%  1%  1%  1%  1%  1%
[libx264 @ 0x5555555dd680] i4 v,h,dc,ddl,ddr,vr,hd,vl,hu: 45% 35% 14%  2%  1%  1%  1%  1%  2%
[libx264 @ 0x5555555dd680] i8c dc,h,v,p: 67% 17%  9%  7%
[libx264 @ 0x5555555dd680] Weighted P-Frames: Y:0.0% UV:0.0%
[libx264 @ 0x5555555dd680] ref P L0: 49.3%  3.1% 22.3% 10.9%  8.3%  6.1%
[libx264 @ 0x5555555dd680] kb/s:1374.59
Exiting normally, received signal 2.
/home/pmorelr/apps/basilisk/src/poisson.h:324:error: [Thread debugging using libthread_db enabled]
/home/pmorelr/apps/basilisk/src/poisson.h:324:error: Using host libthread_db library "/lib/x86_64-linux-gnu/libthread_db.so.1".
/home/pmorelr/apps/basilisk/src/poisson.h:324:error: [New Thread 0x7fffefb83700 (LWP 254577)]
/home/pmorelr/apps/basilisk/src/poisson.h:324:error: [New Thread 0x7fffef382700 (LWP 254578)]
/home/pmorelr/apps/basilisk/src/poisson.h:324:error: [New Thread 0x7fffeeb81700 (LWP 254579)]
/home/pmorelr/apps/basilisk/src/poisson.h:324:error: [New Thread 0x7fffee380700 (LWP 254580)]
/home/pmorelr/apps/basilisk/src/poisson.h:324:error: [New Thread 0x7fffedb7f700 (LWP 254581)]
/home/pmorelr/apps/basilisk/src/poisson.h:324:error: [New Thread 0x7fffed37e700 (LWP 254582)]
/home/pmorelr/apps/basilisk/src/poisson.h:324:error: [New Thread 0x7fffecb7d700 (LWP 254583)]
/home/pmorelr/apps/basilisk/src/poisson.h:324:error: [New Thread 0x7fffcffff700 (LWP 254584)]
/home/pmorelr/apps/basilisk/src/poisson.h:324:error: [New Thread 0x7fffcf7fe700 (LWP 254585)]
/home/pmorelr/apps/basilisk/src/poisson.h:324:error: [New Thread 0x7fffceffd700 (LWP 254586)]
/home/pmorelr/apps/basilisk/src/poisson.h:324:error: [New Thread 0x7fffce7fc700 (LWP 254587)]
/home/pmorelr/apps/basilisk/src/poisson.h:324:error: [New Thread 0x7fffcdffb700 (LWP 254588)]
/home/pmorelr/apps/basilisk/src/poisson.h:324:error: [New Thread 0x7fffcd7fa700 (LWP 254589)]
/home/pmorelr/apps/basilisk/src/poisson.h:324:error: [New Thread 0x7fffccff9700 (LWP 254590)]
/home/pmorelr/apps/basilisk/src/poisson.h:324:error: [New Thread 0x7fffaffff700 (LWP 254591)]
/home/pmorelr/apps/basilisk/src/poisson.h:324:error: [New Thread 0x7fffaf7fe700 (LWP 254592)]
/home/pmorelr/apps/basilisk/src/poisson.h:324:error: [New Thread 0x7fffaeffd700 (LWP 254593)]
/home/pmorelr/apps/basilisk/src/poisson.h:324:error: [New Thread 0x7fffae7fc700 (LWP 254594)]
/home/pmorelr/apps/basilisk/src/poisson.h:324:error: [New Thread 0x7fffadffb700 (LWP 254595)]
/home/pmorelr/apps/basilisk/src/poisson.h:324:error: [New Thread 0x7fffad7fa700 (LWP 254596)]
/home/pmorelr/apps/basilisk/src/poisson.h:324:error: Thread 1 "microlayer" received signal SIGINT, Interrupt.
